<svg viewBox="0 0 48 48" fill="none" xmlns="http://www.w3.org/2000/svg">
  <defs>
    <linearGradient id="eg-emerald-grad" x1="4" y1="4" x2="44" y2="44" gradientUnits="userSpaceOnUse">
      <stop offset="0%" stopColor="#10b981" />
      <stop offset="100%" stopColor="#047857" />
    </linearGradient>
    <linearGradient id="eg-solar-grad" x1="12" y1="8" x2="36" y2="24" gradientUnits="userSpaceOnUse">
      <stop offset="0%" stopColor="#fbbf24" />
      <stop offset="100%" stopColor="#d97706" />
    </linearGradient>
    <linearGradient id="eg-wind-grad" x1="12" y1="24" x2="36" y2="40" gradientUnits="userSpaceOnUse">
      <stop offset="0%" stopColor="#38bdf8" />
      <stop offset="100%" stopColor="#0284c7" />
    </linearGradient>
  </defs>
  <polygon points="24,3 42,13.4 42,34.6 24,45 6,34.6 6,13.4" fill="#061c12" stroke="url(#eg-emerald-grad)" stroke-width="2.5" stroke-linejoin="round"/>
  <line x1="6" y1="24" x2="42" y2="24" stroke="#10b981" stroke-width="0.8" stroke-opacity="0.3" stroke-dasharray="2 2" />
  <line x1="24" y1="3" x2="24" y2="45" stroke="#10b981" stroke-width="0.8" stroke-opacity="0.3" stroke-dasharray="2 2" />
  <path d="M16 22 A8 8 0 0 1 32 22" stroke="url(#eg-solar-grad)" stroke-width="2.8" stroke-linecap="round"/>
  <line x1="24" y1="10" x2="24" y2="7" stroke="#fbbf24" stroke-width="2" stroke-linecap="round" />
  <line x1="17" y1="13" x2="15" y2="11" stroke="#fbbf24" stroke-width="1.8" stroke-linecap="round" />
  <line x1="31" y1="13" x2="33" y2="11" stroke="#fbbf24" stroke-width="1.8" stroke-linecap="round" />
  <path d="M13 29 C18 27, 24 33, 31 30 C34 28.5, 36 29.5, 37 31" stroke="url(#eg-wind-grad)" stroke-width="2.5" stroke-linecap="round"/>
  <path d="M11 35 C16 33.5, 22 38, 28 36 C32 34.5, 34 35.5, 35 36.5" stroke="url(#eg-wind-grad)" stroke-width="1.6" stroke-linecap="round" stroke-opacity="0.8"/>
  <circle cx="24" cy="24" r="3" fill="#10b981" />
  <circle cx="24" cy="24" r="1.5" fill="#ffffff" />
</svg>
